<svg width="20" height="21" viewBox="0 0 20 21" fill="none" xmlns="http://www.w3.org/2000/svg">
<path fill-rule="evenodd" clip-rule="evenodd" d="M18.9884 6.87524C18.9225 5.82117 18.0484 5 16.9923 5H14.8712C14.8712 2.23858 12.6326 0 9.87119 0C7.10977 0 4.87119 2.23858 4.87119 5H2.75008C1.69395 5 0.819854 5.82118 0.753974 6.87525L0.00397434 18.8752C-0.0679857 20.0266 0.846435 21 2.00008 21H17.7423C18.8959 21 19.8104 20.0266 19.7384 18.8752L18.9884 6.87524ZM7.37119 5H12.3712C12.3712 3.61929 11.2519 2.5 9.87119 2.5C8.49049 2.5 7.37119 3.61929 7.37119 5ZM6.12117 11C5.43082 11 4.87117 10.4404 4.87117 9.75V7.50003H7.37117V9.75C7.37117 10.4404 6.81153 11 6.12117 11ZM13.6212 11C12.9308 11 12.3712 10.4404 12.3712 9.75V7.50003H14.8712V9.75C14.8712 10.4404 14.3115 11 13.6212 11Z" fill="#733678"/>
</svg>
