<svg width="21" height="19" viewBox="0 0 21 19" fill="none" xmlns="http://www.w3.org/2000/svg">
<path d="M10.5 2.63661L10.3635 2.50772C9.2014 1.37062 7.64236 0.730437 6.0165 0.722717C4.42264 0.722717 2.89391 1.35516 1.7659 2.4812C0.63789 3.60724 0.00278 5.13487 0 6.72872C0 9.96268 1.1865 11.5062 6.489 15.6957L9.2737 17.8572C9.9953 18.4173 11.0047 18.4173 11.7263 17.8572L14.511 15.6957C19.8135 11.5062 21 9.96268 21 6.72872C20.9972 5.13487 20.3621 3.60724 19.2341 2.4812C18.1061 1.35516 16.5773 0.722717 14.9835 0.722717C13.3576 0.730437 11.7986 1.37062 10.6365 2.50772L10.5 2.63661Z" fill="#733678"/>
</svg>
