<svg width="81" height="20" viewBox="0 0 81 20" fill="none" xmlns="http://www.w3.org/2000/svg">
<path d="M0.11364 0.597014H2.73557L8.90066 16.4552H9.11325L15.2783 0.597014H17.9003V19.7015H15.8452V5.18657H15.6681L9.99904 19.7015H8.01488L2.34583 5.18657H2.16867V19.7015H0.11364V0.597014Z" fill="#733678"/>
<path d="M27.7259 20C26.4149 20 25.2841 19.6953 24.3333 19.0858C23.3885 18.4701 22.6592 17.6119 22.1454 16.5112C21.6376 15.4042 21.3836 14.1169 21.3836 12.6493C21.3836 11.1816 21.6376 9.88806 22.1454 8.76866C22.6592 7.64303 23.3737 6.76617 24.289 6.13806C25.2102 5.50373 26.285 5.18657 27.5133 5.18657C28.2219 5.18657 28.9217 5.31094 29.6126 5.5597C30.3035 5.80846 30.9324 6.21269 31.4993 6.77239C32.0663 7.32587 32.518 8.0597 32.8546 8.97388C33.1912 9.88806 33.3595 11.0137 33.3595 12.3507V13.2836H22.8718V11.3806H31.2336C31.2336 10.5721 31.0801 9.85075 30.773 9.21642C30.4718 8.58209 30.0407 8.08147 29.4797 7.71455C28.9247 7.34764 28.2692 7.16418 27.5133 7.16418C26.6807 7.16418 25.9602 7.38184 25.352 7.81716C24.7496 8.24627 24.2861 8.80597 23.9613 9.49627C23.6365 10.1866 23.4741 10.9266 23.4741 11.7164V12.9851C23.4741 14.0672 23.6513 14.9845 24.0056 15.7369C24.3658 16.4832 24.8648 17.0522 25.5026 17.444C26.1403 17.8296 26.8814 18.0224 27.7259 18.0224C28.2751 18.0224 28.7711 17.9415 29.214 17.7799C29.6628 17.6119 30.0496 17.3632 30.3744 17.0336C30.6992 16.6978 30.9502 16.2811 31.1273 15.7836L33.1469 16.3806C32.9343 17.102 32.5771 17.7363 32.0751 18.2836C31.5732 18.8246 30.9531 19.2475 30.215 19.5522C29.4768 19.8507 28.6471 20 27.7259 20Z" fill="#733678"/>
<path d="M36.5395 19.7015V5.37313H38.5591V7.53731H38.7008C38.9488 6.82836 39.3976 6.25311 40.0472 5.81157C40.6968 5.37002 41.429 5.14925 42.244 5.14925C42.3975 5.14925 42.5894 5.15236 42.8197 5.15858C43.05 5.1648 43.2242 5.17413 43.3423 5.18657V7.42537C43.2715 7.40672 43.1091 7.37873 42.8552 7.34142C42.6071 7.29789 42.3444 7.27612 42.0668 7.27612C41.4054 7.27612 40.8149 7.42226 40.2952 7.71455C39.7815 8.00062 39.374 8.39863 39.0728 8.90858C38.7776 9.41231 38.6299 9.98756 38.6299 10.6343V19.7015H36.5395Z" fill="#733678"/>
<path d="M45.8203 19.7015V5.37313H47.9108V19.7015H45.8203ZM46.8833 2.98507C46.4758 2.98507 46.1245 2.83893 45.8292 2.54664C45.5398 2.25435 45.3952 1.90299 45.3952 1.49254C45.3952 1.08209 45.5398 0.730721 45.8292 0.438432C46.1245 0.146144 46.4758 0 46.8833 0C47.2907 0 47.6392 0.146144 47.9285 0.438432C48.2238 0.730721 48.3714 1.08209 48.3714 1.49254C48.3714 1.90299 48.2238 2.25435 47.9285 2.54664C47.6392 2.83893 47.2907 2.98507 46.8833 2.98507Z" fill="#733678"/>
<path d="M53.6197 0.597014L59.0053 16.6791H59.2179L64.6035 0.597014H66.9065L60.2454 19.7015H57.9778L51.3167 0.597014H53.6197Z" fill="#733678"/>
<path d="M78.0232 13.8433V5.37313H80.1136V19.7015H78.0232V17.2761H77.8814C77.5626 18.0037 77.0665 18.6225 76.3933 19.1325C75.7201 19.6362 74.8698 19.8881 73.8423 19.8881C72.9919 19.8881 72.236 19.6922 71.5746 19.3004C70.9132 18.9024 70.3936 18.3053 70.0156 17.5093C69.6377 16.7071 69.4487 15.6965 69.4487 14.4776V5.37313H71.5392V14.3284C71.5392 15.3731 71.8168 16.2065 72.3718 16.8284C72.9328 17.4502 73.6474 17.7612 74.5155 17.7612C75.0351 17.7612 75.5636 17.6213 76.101 17.3414C76.6443 17.0616 77.099 16.6325 77.4651 16.0541C77.8372 15.4757 78.0232 14.7388 78.0232 13.8433Z" fill="#733678"/>
</svg>
