<svg width="16" height="19" viewBox="0 0 16 19" fill="none" xmlns="http://www.w3.org/2000/svg">
<path d="M8 8.5C10.2091 8.5 12 6.70914 12 4.5C12 2.29086 10.2091 0.5 8 0.5C5.79086 0.5 4 2.29086 4 4.5C4 6.70914 5.79086 8.5 8 8.5Z" fill="#733678"/>
<path d="M15.5815 13.979C15.8642 14.3074 16 14.7333 16 15.1666V16.5C16 17.6046 15.1046 18.5 14 18.5H2C0.89543 18.5 0 17.6046 0 16.5V15.1666C0 14.7333 0.13576 14.3074 0.41847 13.979C2.25235 11.8488 4.96866 10.5 8 10.5C11.0313 10.5 13.7476 11.8488 15.5815 13.979Z" fill="#733678"/>
</svg>
